<svg width="24" height="25" viewBox="0 0 24 25" xmlns="http://www.w3.org/2000/svg"><title>icon-music</title><g fill="none" fill-rule="evenodd"><path d="M2 3h20v20H2z"/><path d="M7 17.127V7.09a1 1 0 0 1 .882-.993l10-1.185A1 1 0 0 1 19 5.905v12.11c0 .078-.005.155-.013.232.008.078.013.157.013.237 0 1.381-1.343 2.5-3 2.5s-3-1.119-3-2.5c0-1.38 1.343-2.5 3-2.5.35 0 .687.05 1 .143v-5.184l-8 .872v7.733c-.041 1.351-1.368 2.437-3 2.437-1.657 0-3-1.12-3-2.5 0-1.381 1.343-2.5 3-2.5.35 0 .687.05 1 .142zm2-7.19l8-.894V6.985L9 7.988v1.949z" fill="#484848"/></g></svg>